# AST/ASF file generated using VICON BodyLanguage
# -----------------------------------------------
:version 1.10
:name VICON
:units
  mass 1.0
  length 0.45
  angle deg
:documentation
   .ast/.asf automatically generated from VICON data using
   VICON BodyBuilder and BodyLanguage model FoxedUp or BRILLIANT.MOD
:root
   order TX TY TZ RX RY RZ
   axis XYZ
   position 0 0 0  
   orientation 0 0 0 
:bonedata
  begin
     id 1 
     name lhipjoint
     direction 0.646657 -0.683706 0.338203 
     length 2.4948 
     axis 0 0 0  XYZ
  end
  begin
     id 2 
     name lfemur
     direction 0.34202 -0.939693 0  
     length 6.79491  
     axis 0 0 20  XYZ
    dof rx ry rz
    limits (-160.0 20.0)
           (-70.0 70.0)
           (-60.0 70.0)
  end
  begin
     id 3 
     name ltibia
     direction 0.34202 -0.939693 0   
     length 7.56807   
     axis 0 0 20   XYZ
    dof rx
    limits (-10.0 170.0)
  end
  begin
     id 4 
     name lfoot
     direction 0.0679796 -0.186772 0.980048   
     length 2.53018   
     axis -90 7.62852e-016 20   XYZ
    dof rx rz
    limits (-45.0 90.0)
           (-70.0 20.0)
  end
  begin
     id 5 
     name ltoes
     direction 1.53625e-011 -4.21881e-011 1   
     length 1.26912   
     axis -90 7.62852e-016 20   XYZ
    dof rx
    limits (-90.0 20.0)
  end
  begin
     id 6 
     name rhipjoint
     direction -0.618868 -0.704065 0.348274   
     length 2.42265  
     axis 0 0 0  XYZ 
  end
  begin
     id 7 
     name rfemur
     direction -0.34202 -0.939693 0   
     length 6.73814   
     axis 0 0 -20   XYZ
    dof rx ry rz
    limits (-160.0 20.0)
           (-70.0 70.0)
           (-70.0 60.0)
  end
  begin
     id 8 
     name rtibia
     direction -0.34202 -0.939693 0   
     length 7.66799   
     axis 0 0 -20   XYZ
    dof rx
    limits (-10.0 170.0)
 end
 begin
     id 9 
     name rfoot
     direction -0.0727352 -0.199838 0.977125   
     length 2.57224  
     axis -90 -7.62852e-016 -20   XYZ
    dof rx rz
    limits (-45.0 90.0)
           (-20.0 70.0)
  end
  begin
     id 10 
     name rtoes
     direction -1.53501e-011 -4.21858e-011 1   
     length 1.28858   
     axis -90 -7.62852e-016 -20   XYZ
    dof rx
    limits (-90.0 20.0)
  end
  begin
     id 11 
     name lowerback
     direction -0.0172471 0.995767 -0.0902851   
     length 2.20206   
     axis 0 0 0   XYZ
    dof rx ry rz
    limits (-20.0 45.0)
           (-30.0 30.0)
           (-30.0 30.0)
  end
  begin
     id 12 
     name upperback
     direction -0.000110737 0.999714 0.0239043   
     length 2.19523   
     axis 0 0 0   XYZ
    dof rx ry rz
    limits (-20.0 45.0)
           (-30.0 30.0)
           (-30.0 30.0)
  end
  begin
     id 13 
     name thorax
     direction 0.00704869 0.997783 0.0661741   
     length 2.21977   
     axis 0 0 0   XYZ
    dof rx ry rz
    limits (-20.0 45.0)
           (-30.0 30.0)
           (-30.0 30.0)
  end
  begin
     id 14 
     name lowerneck
     direction -0.00407501 0.995527 0.0943846   
     length 1.83142   
     axis 0 0 0   XYZ
    dof rx ry rz
    limits (-20.0 45.0)
           (-30.0 30.0)
           (-30.0 30.0)
  end
  begin
     id 15 
     name upperneck
     direction 0.0640586 0.986486 -0.150807   
     length 1.84616   
     axis 0 0 0   XYZ
    dof rx ry rz
    limits (-20.0 45.0)
           (-30.0 30.0)
           (-30.0 30.0)
  end
  begin
     id 16
     name head
     direction 0.0188017 0.99791 -0.0618239  
     length 1.85932  
     axis 0 0 0   XYZ
    dof rx ry rz
    limits (-20.0 45.0)
           (-30.0 30.0)
           (-30.0 30.0)
  end
  begin
     id 17 
     name lclavicle
     direction 0.976074 0.206905 0.066852  
     length 3.81043  
     axis 0 0 0   XYZ
    dof ry rz
    limits (-20.0 10.0)
           (0.0 20.0)
  end
  begin
     id 18 
     name lhumerus
     direction 1 -4.48971e-011 1.86916e-027   
     length 5.37587   
     axis 180 -30 -90   XYZ
    dof rx ry rz
    limits (-60.0 90.0)
           (-90.0 90.0)
           (-90.0 90.0)
  end
  begin
     id 19
     name lradius
     direction 1 -4.48968e-011 1.69187e-027   
     length 3.35977   
     axis 180 -30 -90   XYZ
    dof rx
    limits (-10.0 170.0)
  end
  begin
     id 20
     name lwrist
     direction 1 -4.48968e-011 5.8978e-027   
     length 1.67988   
     axis -3.27506e-015 90 90   XYZ
    dof ry
    limits (-180.0 0.0)
 end
  begin
     id 21 
     name lhand
     direction 1 -4.49028e-011 1.18071e-026   
     length 0.561859   
     axis -7.52654e-015 90 90   XYZ
    dof rx rz
    limits (-90.0 90.0)
           (-45.0 45.0)
  end
  begin
     id 22 
     name lfingers
     direction 1 -4.48927e-011 2.35758e-026   
     length 0.452985   
     axis -1.50534e-014 90 90   XYZ
    dof rx
    limits (0.0 90.0)
  end
  begin
     id 23
     name lthumb
     direction 0.707107 -6.34898e-011 0.707107   
     length 0.650399   
     axis -90 45 5.69224e-014   XYZ
    dof rx rz
    limits (-45.0 45.0)
           (-45.0 45.0)
  end
  begin
     id 24 
     name rclavicle
     direction -0.988403 0.151789 0.00439714   
     length 3.6942  
     axis 0 0 0   XYZ 
    dof ry rz
    limits (-10.0 20.0)
           (-20.0 0.0)
  end
  begin
     id 25 
     name rhumerus
     direction -1 -4.48978e-011 1.62495e-027  
     length 5.22819   
     axis 180 30 90   XYZ
    dof rx ry rz
    limits (-90.0 60.0)
           (-90.0 90.0)
           (-90.0 90.0)
  end
  begin
     id 26 
     name rradius
     direction -1 -4.48961e-011 3.47796e-027   
     length 3.40764   
     axis 180 30 90   XYZ
    dof rx
    limits (-10.0 170.0)
  end
  begin
     id 27 
     name rwrist
     direction -1 -4.48949e-011 5.89602e-027   
     length 1.70382   
     axis -3.27506e-015 -90 -90   XYZ
    dof ry
    limits (-180.0 0.0)
  end
  begin
     id 28
     name rhand
     direction -1 -4.48977e-011 1.17973e-026   
     length 0.583255   
     axis -7.52654e-015 -90 -90   XYZ
    dof rx rz
    limits (-90.0 90.0)
           (-45.0 45.0)
  end
  begin
     id 29
     name rfingers
     direction -1 -4.49099e-011 2.36408e-026   
     length 0.470235   
     axis -1.50534e-014 -90 -90   XYZ
    dof rx
    limits (0.0 90.0)
  end
  begin
     id 30
     name rthumb
     direction -0.707107 -6.35011e-011 0.707107   
     length 0.675167   
     axis -90 -45 -5.69224e-014   XYZ
    dof rx rz
    limits (-45.0 45.0)
           (-45.0 45.0)
  end
:hierarchy
  begin
    root lhipjoint rhipjoint lowerback
    lhipjoint lfemur
    lfemur ltibia
    ltibia lfoot
    lfoot ltoes
    rhipjoint rfemur
    rfemur rtibia
    rtibia rfoot
    rfoot rtoes
    lowerback upperback
    upperback thorax
    thorax lowerneck lclavicle rclavicle
    lowerneck upperneck
    upperneck head
    lclavicle lhumerus
    lhumerus lradius
    lradius lwrist
    lwrist lhand lthumb
    lhand lfingers
    rclavicle rhumerus
    rhumerus rradius
    rradius rwrist
    rwrist rhand rthumb
    rhand rfingers
  end

#!OML:ASF G:\JayActor3\Patient Classification 1\Patient 1\Session 2\male.ASF
:FULLY-SPECIFIED
:DEGREES
922
root -34.903 16.5953 -5.08571 4.18741 -80.1666 -15.1904
lowerback 4.07647 0.489612 -0.762057
upperback 0.429462 0.595184 -0.758148
thorax -1.84374 0.296778 -0.38356
lowerneck -4.20325 -4.12785 -4.99082
upperneck 1.80986 -5.66333 10.2132
head 1.8317 -2.72087 4.09142
rclavicle -1.15295e-014 1.03368e-014
rhumerus -52.8605 19.488 -94.1226
rradius 66.7899
rwrist 1.80908
rhand -28.768 17.5402
rfingers 7.12502
rthumb -2.12765 -12.4289
lclavicle -1.15295e-014 1.03368e-014
lhumerus -32.5819 -4.37844 85.6225
lradius 117.373
lwrist 79.6107
lhand -22.2991 10.1667
lfingers 7.12502
lthumb 4.11993 40.1066
rfemur -9.999 -4.57042 24.3196
rtibia 59.6814
rfoot -20.4352 -11.5386
rtoes -0.56478
lfemur -9.72862 -5.91071 -18.6814
ltibia 22.7864
lfoot 3.84647 -18.0945
ltoes 7.05445
923
root -34.9796 16.5882 -5.07113 5.7336 -80.0157 -16.7175
lowerback 4.00944 0.479617 -0.387909
upperback 0.450277 0.602563 -0.649043
thorax -1.7821 0.298483 -0.481041
lowerneck -4.24024 -4.16365 -4.95332
upperneck 1.85111 -5.71736 10.2326
head 1.85614 -2.74569 4.08816
rclavicle 2.64384e-014 0
rhumerus -52.9471 19.6519 -94.0919
rradius 66.798
rwrist 1.77492
rhand -28.7431 17.5633
rfingers 7.12502
rthumb -2.10358 -12.4061
lclavicle 2.64384e-014 0
lhumerus -32.6528 -4.51609 85.7375
lradius 117.418
lwrist 79.4615
lhand -22.1624 10.1418
lfingers 7.12502
lthumb 4.25194 40.0791
rfemur -9.72019 -4.44105 24.7175
rtibia 57.5402
rfoot -21.1903 -12.0778
rtoes -0.713513
lfemur -10.0752 -6.11173 -18.4495
ltibia 23.8682
lfoot 3.05489 -18.0483
ltoes 6.92182
924
root -35.0559 16.5786 -5.0567 7.0915 -79.8057 -18.0529
lowerback 3.91117 0.458479 -0.0249494
upperback 0.482121 0.593506 -0.548828
thorax -1.69179 0.292204 -0.580157
lowerneck -4.29738 -4.20692 -4.92118
upperneck 1.91405 -5.78285 10.2601
head 1.89303 -2.77522 4.088
rclavicle 7.25564e-015 4.77083e-015
rhumerus -53.0149 19.7758 -94.0429
rradius 66.8488
rwrist 1.69704
rhand -28.7321 17.5812
rfingers 7.12502
rthumb -2.09293 -12.3883
lclavicle 7.25564e-015 4.77083e-015
lhumerus -32.6886 -4.68067 85.8339
lradius 117.467
lwrist 79.3026
lhand -22.0051 10.117
lfingers 7.12502
lthumb 4.40383 40.0512
rfemur -9.36941 -4.55632 25.0841
rtibia 55.4401
rfoot -21.9482 -12.6305
rtoes 0.210274
lfemur -10.4145 -6.30781 -18.2318
ltibia 24.9123
lfoot 2.32924 -18.0467
ltoes 6.93645
925
root -35.1314 16.5682 -5.04358 8.04546 -79.5349 -18.9713
lowerback 3.78796 0.425911 0.275025
upperback 0.517173 0.56491 -0.46563
thorax -1.58505 0.276783 -0.660239
lowerneck -4.35146 -4.25554 -4.89984
upperneck 1.97951 -5.856 10.2999
head 1.93187 -2.80849 4.0941
rclavicle -3.06128e-014 4.77083e-015
rhumerus -53.0681 19.8327 -93.9701
rradius 66.9314
rwrist 1.59235
rhand -28.7354 17.5881
rfingers 7.12502
rthumb -2.09615 -12.3814
lclavicle -3.06128e-014 4.77083e-015
lhumerus -32.6881 -4.85681 85.9104
lradius 117.514
lwrist 79.1532
lhand -21.8539 10.0941
lfingers 7.12502
lthumb 4.54983 40.0253
rfemur -8.99309 -4.98989 25.3821
rtibia 53.5732
rfoot -22.7185 -13.2209
rtoes 1.89298
lfemur -10.7228 -6.48589 -18.0631
ltibia 25.8535
lfoot 1.71059 -18.1149
ltoes 7.10162
926
root -35.2044 16.5594 -5.03274 8.68537 -79.2185 -19.5515
lowerback 3.65108 0.384006 0.513046
upperback 0.543191 0.519914 -0.395357
thorax -1.48086 0.253718 -0.718126
lowerneck -4.38067 -4.30641 -4.89425
upperneck 2.03094 -5.93171 10.3548
head 1.9631 -2.84385 4.10894
rclavicle 1.13307e-014 -6.36111e-015
rhumerus -53.1118 19.818 -93.8772
rradius 67.0304
rwrist 1.48278
rhand -28.7545 17.5892
rfingers 7.12502
rthumb -2.11465 -12.38
lclavicle 1.13307e-014 -6.36111e-015
lhumerus -32.6574 -5.0213 85.9641
lradius 117.55
lwrist 79.0199
lhand -21.7235 10.0816
lfingers 7.12502
lthumb 4.67574 40.01
rfemur -8.64892 -5.72831 25.6376
rtibia 52.0951
rfoot -23.5371 -13.7934
rtoes 3.89795
lfemur -10.996 -6.64063 -17.9248
ltibia 26.6463
lfoot 1.21612 -18.2446
ltoes 7.35186
927
root -35.2745 16.5548 -5.02445 9.04768 -78.89 -19.8244
lowerback 3.50351 0.343643 0.684686
upperback 0.558206 0.473222 -0.338376
thorax -1.38269 0.230249 -0.752533
lowerneck -4.38141 -4.36037 -4.90196
upperneck 2.05592 -6.00984 10.4171
head 1.98149 -2.88165 4.12938
rclavicle -2.9122e-014 5.56597e-015
rhumerus -53.1323 19.7331 -93.7612
rradius 67.1192
rwrist 1.38489
rhand -28.7869 17.5881
rfingers 7.12502
rthumb -2.14591 -12.3808
lclavicle -2.9122e-014 5.56597e-015
lhumerus -32.5952 -5.16049 86.002
lradius 117.57
lwrist 78.9057
lhand -21.6234 10.0724
lfingers 7.12502
lthumb 4.77238 39.9987
rfemur -8.36384 -6.6474 25.8635
rtibia 51.0795
rfoot -24.3744 -14.3312
rtoes 5.6363
lfemur -11.2191 -6.77966 -17.8216
ltibia 27.2601
lfoot 0.839828 -18.4036
ltoes 7.62111
928
root -35.3412 16.5549 -5.01875 9.20723 -78.5935 -19.8623
lowerback 3.35023 0.312637 0.789836
upperback 0.558557 0.435735 -0.294096
thorax -1.29676 0.211682 -0.76333
lowerneck -4.34382 -4.4119 -4.91998
upperneck 2.04684 -6.08244 10.4826
head 1.98168 -2.91839 4.15387
rclavicle 2.25621e-014 -7.95139e-015
rhumerus -53.1253 19.602 -93.6352
rradius 67.1755
rwrist 1.32187
rhand -28.8272 17.5841
rfingers 7.12502
rthumb -2.18483 -12.3845
lclavicle 2.25621e-014 -7.95139e-015
lhumerus -32.5155 -5.2483 86.0198
lradius 117.573
lwrist 78.8122
lhand -21.5565 10.075
lfingers 7.12502
lthumb 4.83706 39.9998
rfemur -8.15463 -7.58918 26.0629
rtibia 50.4893
rfoot -25.1718 -14.827
rtoes 6.80433
lfemur -11.3894 -6.9083 -17.7547
ltibia 27.6972
lfoot 0.560205 -18.5436
ltoes 7.8627
929
root -35.4051 16.5586 -5.01604 9.09392 -78.367 -19.619
lowerback 3.23061 0.299599 0.807451
upperback 0.53892 0.418815 -0.271154
thorax -1.25029 0.203511 -0.748247
lowerneck -4.27429 -4.46089 -4.9431
upperneck 2.02546 -6.1512 10.5491
head 1.97188 -2.95439 4.18049
rclavicle -1.51076e-014 -7.95139e-016
rhumerus -53.1089 19.4378 -93.5215
rradius 67.1833
rwrist 1.30821
rhand -28.8669 17.579
rfingers 7.12502
rthumb -2.22316 -12.3892
lclavicle -1.51076e-014 -7.95139e-016
lhumerus -32.4548 -5.28432 86.0155
lradius 117.564
lwrist 78.7418
lhand -21.5229 10.0807
lfingers 7.12502
lthumb 4.86944 40.0047
rfemur -7.98268 -8.40101 26.2059
rtibia 50.1977
rfoot -25.8704 -15.264
rtoes 7.29992
lfemur -11.4727 -7.03282 -17.752
ltibia 27.9695
lfoot 0.331651 -18.6199
ltoes 8.01784
930
root -35.4662 16.5646 -5.01621 8.84423 -78.2454 -19.2422
lowerback 3.147 0.309799 0.753959
upperback 0.509626 0.430506 -0.26207
thorax -1.23375 0.209712 -0.708999
lowerneck -4.18558 -4.50062 -4.96578
upperneck 1.99494 -6.20717 10.6136
head 1.95435 -2.98477 4.20728
rclavicle -1.61016e-014 2.38542e-015
rhumerus -53.0649 19.2719 -93.4257
rradius 67.1325
rwrist 1.35323
rhand -28.8942 17.5739
rfingers 7.12502
rthumb -2.24957 -12.394
lclavicle -1.61016e-014 2.38542e-015
lhumerus -32.415 -5.25578 85.9886
lradius 117.549
lwrist 78.6953
lhand -21.5207 10.0976
lfingers 7.12502
lthumb 4.87155 40.0216
rfemur -7.82909 -8.95043 26.309
rtibia 50.0436
rfoot -26.4212 -15.5947
rtoes 7.42579
lfemur -11.4684 -7.14917 -17.7946
ltibia 28.1105
lfoot 0.112678 -18.5956
ltoes 8.05619
